<?xml version="1.0" encoding="UTF-8"?>
<svg id="Camada_2" data-name="Camada 2" xmlns="http://www.w3.org/2000/svg" xmlns:xlink="http://www.w3.org/1999/xlink" viewBox="0 0 518.95 93.22">
  <defs>
    <style>
      .cls-1 {
        fill: url(#Gradiente_sem_nome_75);
      }

      .cls-2 {
        fill: #e94e1b;
      }

      .cls-3 {
        fill: url(#Gradiente_sem_nome_86);
      }

      .cls-4 {
        fill: url(#Gradiente_sem_nome_80);
      }

      .cls-5 {
        fill: url(#Gradiente_sem_nome_71);
      }

      .cls-6 {
        fill: #313130;
        stroke: #313130;
        stroke-width: 2px;
      }

      .cls-6, .cls-7 {
        stroke-miterlimit: 10;
      }

      .cls-7 {
        fill: none;
        stroke: #e30613;
        stroke-width: .15px;
      }
    </style>
    <radialGradient id="Gradiente_sem_nome_71" data-name="Gradiente sem nome 71" cx="17.43" cy="60.51" fx="17.43" fy="73.79" r="13.67" gradientUnits="userSpaceOnUse">
      <stop offset="0" stop-color="#c9a3c8"/>
      <stop offset=".54" stop-color="#7c5b8b"/>
      <stop offset="1" stop-color="#3a1d56"/>
    </radialGradient>
    <radialGradient id="Gradiente_sem_nome_75" data-name="Gradiente sem nome 75" cx="27.28" cy="19.84" fx="10.34" fy="7.88" r="20.73" gradientUnits="userSpaceOnUse">
      <stop offset="0" stop-color="#c9a3c8"/>
      <stop offset="1" stop-color="#3a1d56"/>
    </radialGradient>
    <radialGradient id="Gradiente_sem_nome_80" data-name="Gradiente sem nome 80" cx="87.12" cy="61.48" fx="87.12" fy="61.48" r="20.92" gradientUnits="userSpaceOnUse">
      <stop offset="0" stop-color="#c9a3c8"/>
      <stop offset=".54" stop-color="#7c5b8b"/>
      <stop offset="1" stop-color="#3a1d56"/>
    </radialGradient>
    <radialGradient id="Gradiente_sem_nome_86" data-name="Gradiente sem nome 86" cx="55.54" cy="52.53" fx="55.54" fy="52.53" r="47.4" gradientUnits="userSpaceOnUse">
      <stop offset="0" stop-color="#ffef26"/>
      <stop offset=".57" stop-color="#f2a22d"/>
      <stop offset=".99" stop-color="#e96734"/>
    </radialGradient>
  </defs>
  <g id="Camada_1-2" data-name="Camada 1">
    <g>
      <path class="cls-6" d="M398.64,78.93l-.11-6.61c-2.51,0-5.13-1.94-5.13-5.08V5.77h-8.41l-.04,23.23c-4.91-3.77-10.67-5.84-17.05-5.84-15.38,0-27.86,12.47-27.86,27.86s12.17,27.84,27.3,27.85c6.77,0,12.42-2.63,17.56-7.67,1.74,3.54,5.77,7.74,13.74,7.74ZM367.16,70.9c-10.43-.17-18.75-8.95-18.75-19.46s8.72-19.47,19.47-19.47c8.31,0,12.8,2.8,17.07,6.25l-.03,22.69-.02-.02c-3.03,4.59-9.37,10.15-17.72,10.01Z"/>
      <path class="cls-6" d="M427.78,23.29c-15.38,0-27.86,12.47-27.86,27.86s12.47,27.86,27.86,27.86,27.86-12.47,27.86-27.86-12.47-27.86-27.86-27.86ZM427.78,72.33c-10.75,0-19.47-9.49-19.47-21.19s8.72-21.19,19.47-21.19,19.47,9.49,19.47,21.19-8.72,21.19-19.47,21.19Z"/>
      <path class="cls-6" d="M144.33,23.29c-15.38,0-27.86,12.47-27.86,27.86s12.47,27.86,27.86,27.86,27.86-12.47,27.86-27.86-12.47-27.86-27.86-27.86ZM144.33,72.33c-10.75,0-19.47-9.49-19.47-21.19s8.72-21.19,19.47-21.19,19.47,9.49,19.47,21.19-8.72,21.19-19.47,21.19Z"/>
      <path class="cls-6" d="M490.09,23.29c-15.38,0-27.86,12.47-27.86,27.86s12.47,27.86,27.86,27.86,27.86-12.47,27.86-27.86-12.47-27.86-27.86-27.86ZM490.09,72.33c-10.75,0-19.47-9.49-19.47-21.19s8.72-21.19,19.47-21.19,19.47,9.49,19.47,21.19-8.72,21.19-19.47,21.19Z"/>
      <path class="cls-6" d="M219.55,64.7c2.87,3.24,4.98,8.26,5.24,14.05h7c-.43-9.77-3.39-16.6-8.53-22.47,1.33-4.36,1.96-8.98,1.86-13.52-1.03-23.28-30.47-22.83-44.72-14.8,0,0,3.42,5.8,3.42,5.8,10.09-4.94,37.55-8.04,32.64,15.27-5.33-4.05-11.99-6.37-18.56-6.31-11.09-.24-22.05,7.13-21.59,19.01.39,9.99,10.74,17.09,20.06,17.09s17.07-3.88,23.19-14.11ZM187.01,66.72c-3.2-2.97-3.04-7.61-.75-10.72,6.11-8.31,19.37-7.14,27.53.46.18.17.24.43.14.64-2.65,5.8-6.99,10.96-13.13,12.81-4.58,1.38-10.24.12-13.8-3.19Z"/>
      <path class="cls-6" d="M326.43,64.7c2.87,3.24,4.98,8.26,5.24,14.05h7c-.43-9.77-3.39-16.6-8.53-22.47,1.33-4.36,1.96-8.98,1.86-13.52-1.03-23.28-30.47-22.83-44.72-14.8,0,0,3.42,5.8,3.42,5.8,10.09-4.94,37.55-8.04,32.64,15.27-5.33-4.05-11.99-6.37-18.56-6.31-11.09-.24-22.05,7.13-21.59,19.01.39,9.99,10.74,17.09,20.06,17.09s17.07-3.88,23.19-14.11ZM293.88,66.72c-3.2-2.97-3.04-7.61-.75-10.72,6.11-8.31,19.37-7.14,27.53.46.18.17.24.43.14.64-2.65,5.8-6.99,10.96-13.13,12.81-4.58,1.38-10.24.12-13.8-3.19Z"/>
      <path class="cls-6" d="M264.7,50.94c8.37-4.55,14.13-13.26,14.53-23.35h-8.4c-.54,11.08-8.89,19.9-19.18,20.03h-5.12v-24.62h-8.44v55.78h8.44v-24.46h5.12c10.45.11,19.24,7.91,19.24,24.46h8.39c0-14.7-6.07-23.25-14.59-27.84Z"/>
    </g>
    <path class="cls-5" d="M2.25,60.04c-.49-1.4-2.53-14.56-1.46-15.96,1.29,2.47,2.5,3.68,4.22,4.58-1.05,7.6,8.36,21.98,40.75,16.12-10.8,3.09-22.35,9.19-32.47,5.85-6.41-2.12-9.66-6.65-11.05-10.58Z"/>
    <path class="cls-1" d="M10.74,17.2c1.3-2.48,7.96-5.5,11.53,0,3.56,5.5,8.75,20.5,26.72,25.18-16.36-.09-23.86-1.88-28.16-3.7-4.31-1.82-17.83-6.68-10.08-21.49Z"/>
    <path class="cls-4" d="M60.58,31.01c17.24,6.54,21.67,15.63,21.42,22.8-.09,2.64-2.47,7.37-3.65,13.63-.67,3.56-.43,8.31,2.04,9.06,3.37,1.03,10.48-12.08,11.85-20.17-3.12-17-18.75-22.13-31.66-25.32Z"/>
    <g>
      <path class="cls-7" d="M66.44,88.77c-5.99,2.81-12.67,4.37-19.72,4.37-21.38,0-39.39-14.42-44.83-34.07"/>
      <path class="cls-3" d="M2.21,60.02c5.76,19.12,23.51,33.04,44.51,33.04,6.83,0,13.33-1.45,19.16-4.12,7.21-3.3,11.08-12.65,5.28-21.51-1.64-2.51-5.44-4.71-8.43-4.94-19.38-1.51-36.04,14.19-51.31,7.42-6.54-2.9-8.91-8.9-9.2-9.87v-.02ZM91.67,54.02c.21.68.01,1.31-.44.63-3.75-5.7-16.33-14.65-36.91-12.6-17.8,1.78-56.1-2.09-43.62-24.85h0C4.85,24.37,1.09,33.32.37,43.12c6.21,20.85,35.6,12.73,47.81,8.66,35.48-11.84,37.86,24.54,32.49,24.77,3.35.28,10.47-12.19,11.95-22.33C97.16,23.15,72.77.11,46.71.11c-2.08,0-4.13.12-6.14.4-6.4.89-11.31,6.64-11.31,13.34,0,5.54,3.37,10.24,8.12,12.36,6.08,2.72,11.6,2.14,22.66,4.69,19.71,4.54,28.19,12,31.63,23.12Z"/>
      <path class="cls-2" d="M40.25.49c29.41-4.3,55.96,20.38,53.16,50.12-.92,9.16-4,18.66-10.77,25.16,0,0-.1-.11-.1-.11,3.27-3.27,5.52-7.41,7.11-11.7C102.02,30.48,75.22-3.06,40.25.49h0Z"/>
      <path class="cls-2" d="M67.81,88.15c-19,9.9-44.27,4.5-57.57-12.31C3.52,67.56.18,56.88.01,46.28c-.24-10.61,3.63-21.18,10.64-29.13,0,0,.11.1.11.1-3.35,4.04-6.01,8.65-7.69,13.61-4.98,14.78-1.83,32.24,7.95,44.33,13.76,16.85,37.34,21.88,56.78,12.96h0Z"/>
    </g>
  </g>
</svg>